REM DIRINDEX 1\2\4,1\2\5,1\3\6,1\3\7,1\3\8
REM DIRNAME folder01,folder02,folder03,folder04,folder05,folder06,folder07,folder08
TITLE ""
FILE "LEVEL5-020-midashigo.mp3" MP3
  TRACK 01 AUDIO
    TITLE "0:"
    INDEX 01 00:00:00
  TRACK 02 AUDIO
    TITLE "6:cjc092_4146"
    INDEX 01 00:00:03
  TRACK 03 AUDIO
    TITLE "0:"
    INDEX 01 00:03:37
  TRACK 04 AUDIO
    TITLE "7:cjc092_4147"
    INDEX 01 00:04:07
  TRACK 05 AUDIO
    TITLE "8:cjc092_4148"
    INDEX 01 00:05:14
  TRACK 06 AUDIO
    TITLE "0:"
    INDEX 01 00:06:59
  TRACK 07 AUDIO
    TITLE "7:cjc092_4149"
    INDEX 01 00:07:15
  TRACK 08 AUDIO
    TITLE "8:cjc092_4150"
    INDEX 01 00:08:28
  TRACK 09 AUDIO
    TITLE "0:"
    INDEX 01 00:09:22
  TRACK 10 AUDIO
    TITLE "7:cjc092_4151"
    INDEX 01 00:09:53
  TRACK 11 AUDIO
    TITLE "8:cjc092_4152"
    INDEX 01 00:11:19
  TRACK 12 AUDIO
    TITLE "0:"
    INDEX 01 00:12:28
  TRACK 13 AUDIO
    TITLE "7:cjc092_4153"
    INDEX 01 00:12:60
  TRACK 14 AUDIO
    TITLE "8:cjc092_4154"
    INDEX 01 00:14:31
  TRACK 15 AUDIO
    TITLE "0:"
    INDEX 01 00:16:08
  TRACK 16 AUDIO
    TITLE "7:cjc092_4155"
    INDEX 01 00:16:40
  TRACK 17 AUDIO
    TITLE "8:cjc092_4156"
    INDEX 01 00:17:74
  TRACK 18 AUDIO
    TITLE "0:"
    INDEX 01 00:19:24
  TRACK 19 AUDIO
    TITLE "7:cjc092_4157"
    INDEX 01 00:19:56
  TRACK 20 AUDIO
    TITLE "8:cjc092_4158"
    INDEX 01 00:21:25
  TRACK 21 AUDIO
    TITLE "0:"
    INDEX 01 00:23:10
  TRACK 22 AUDIO
    TITLE "7:cjc092_4159"
    INDEX 01 00:23:36
  TRACK 23 AUDIO
    TITLE "8:cjc092_4160"
    INDEX 01 00:24:72
  TRACK 24 AUDIO
    TITLE "0:"
    INDEX 01 00:27:18
  TRACK 25 AUDIO
    TITLE "7:cjc092_4161"
    INDEX 01 00:27:47
  TRACK 26 AUDIO
    TITLE "8:cjc092_4162"
    INDEX 01 00:28:70
  TRACK 27 AUDIO
    TITLE "0:"
    INDEX 01 00:32:41
  TRACK 28 AUDIO
    TITLE "7:cjc092_4163"
    INDEX 01 00:32:70
  TRACK 29 AUDIO
    TITLE "8:cjc092_4164"
    INDEX 01 00:34:28
  TRACK 30 AUDIO
    TITLE "0:"
    INDEX 01 00:39:05
  TRACK 31 AUDIO
    TITLE "7:cjc092_4165"
    INDEX 01 00:39:33
  TRACK 32 AUDIO
    TITLE "8:cjc092_4166"
    INDEX 01 00:40:54
  TRACK 33 AUDIO
    TITLE "0:"
    INDEX 01 00:42:63
  TRACK 34 AUDIO
    TITLE "7:cjc092_4167"
    INDEX 01 00:43:15
  TRACK 35 AUDIO
    TITLE "8:cjc092_4168"
    INDEX 01 00:44:38
  TRACK 36 AUDIO
    TITLE "0:"
    INDEX 01 00:46:47
  TRACK 37 AUDIO
    TITLE "7:cjc092_4169"
    INDEX 01 00:47:05
  TRACK 38 AUDIO
    TITLE "8:cjc092_4170"
    INDEX 01 00:48:34
  TRACK 39 AUDIO
    TITLE "0:"
    INDEX 01 00:50:66
  TRACK 40 AUDIO
    TITLE "7:cjc092_4171"
    INDEX 01 00:51:26
  TRACK 41 AUDIO
    TITLE "8:cjc092_4172"
    INDEX 01 00:52:51
  TRACK 42 AUDIO
    TITLE "0:"
    INDEX 01 00:53:64
  TRACK 43 AUDIO
    TITLE "7:cjc092_4173"
    INDEX 01 00:54:23
  TRACK 44 AUDIO
    TITLE "8:cjc092_4174"
    INDEX 01 00:55:50
  TRACK 45 AUDIO
    TITLE "0:"
    INDEX 01 00:57:52
  TRACK 46 AUDIO
    TITLE "7:cjc092_4175"
    INDEX 01 00:58:07
  TRACK 47 AUDIO
    TITLE "8:cjc092_4176"
    INDEX 01 00:59:28
  TRACK 48 AUDIO
    TITLE "0:"
    INDEX 01 01:00:72
  TRACK 49 AUDIO
    TITLE "7:cjc092_4177"
    INDEX 01 01:01:29
  TRACK 50 AUDIO
    TITLE "8:cjc092_4178"
    INDEX 01 01:02:52
  TRACK 51 AUDIO
    TITLE "0:"
    INDEX 01 01:03:39
  TRACK 52 AUDIO
    TITLE "7:cjc092_4179"
    INDEX 01 01:03:69
  TRACK 53 AUDIO
    TITLE "8:cjc092_4180"
    INDEX 01 01:05:11
  TRACK 54 AUDIO
    TITLE "0:"
    INDEX 01 01:07:00
  TRACK 55 AUDIO
    TITLE "7:cjc092_4181"
    INDEX 01 01:07:29
  TRACK 56 AUDIO
    TITLE "8:cjc092_4182"
    INDEX 01 01:08:50
  TRACK 57 AUDIO
    TITLE "0:"
    INDEX 01 01:11:43
  TRACK 58 AUDIO
    TITLE "7:cjc092_4183"
    INDEX 01 01:11:74
  TRACK 59 AUDIO
    TITLE "8:cjc092_4184"
    INDEX 01 01:13:32
  TRACK 60 AUDIO
    TITLE "0:"
    INDEX 01 01:19:05
